<svg width="24" height="24" viewBox="0 0 24 24" fill="none" xmlns="http://www.w3.org/2000/svg">
  <path d="M12 15C13.6569 15 15 13.6569 15 12C15 10.3431 13.6569 9 12 9C10.3431 9 9 10.3431 9 12C9 13.6569 10.3431 15 12 15Z" stroke="currentColor" stroke-width="1.8"/>
  <path d="M19.4 15C19.2 15.5 19.4 16.1 19.8 16.5L19.9 16.6C20.2 16.9 20.4 17.3 20.4 17.7C20.4 18.1 20.2 18.5 19.9 18.8C19.6 19.1 19.2 19.3 18.8 19.3C18.4 19.3 18 19.1 17.7 18.8L17.6 18.7C17.2 18.3 16.6 18.1 16.1 18.3C15.6 18.5 15.3 19 15.3 19.5V19.7C15.3 20.5 14.7 21.1 13.9 21.1H12.1C11.3 21.1 10.7 20.5 10.7 19.7V19.6C10.7 19.1 10.4 18.6 9.9 18.4C9.4 18.2 8.8 18.4 8.4 18.8L8.3 18.9C8 19.2 7.6 19.4 7.2 19.4C6.8 19.4 6.4 19.2 6.1 18.9C5.5 18.3 5.5 17.3 6.1 16.7L6.2 16.6C6.6 16.2 6.8 15.6 6.6 15.1C6.4 14.6 5.9 14.3 5.4 14.3H5.2C4.4 14.3 3.8 13.7 3.8 12.9V11.1C3.8 10.3 4.4 9.7 5.2 9.7H5.3C5.8 9.7 6.3 9.4 6.5 8.9C6.7 8.4 6.5 7.8 6.1 7.4L6 7.3C5.4 6.7 5.4 5.7 6 5.1C6.6 4.5 7.6 4.5 8.2 5.1L8.3 5.2C8.7 5.6 9.3 5.8 9.8 5.6C10.3 5.4 10.6 4.9 10.6 4.4V4.2C10.6 3.4 11.2 2.8 12 2.8H13.8C14.6 2.8 15.2 3.4 15.2 4.2V4.3C15.2 4.8 15.5 5.3 16 5.5C16.5 5.7 17.1 5.5 17.5 5.1L17.6 5C18.2 4.4 19.2 4.4 19.8 5C20.4 5.6 20.4 6.6 19.8 7.2L19.7 7.3C19.3 7.7 19.1 8.3 19.3 8.8C19.5 9.3 20 9.6 20.5 9.6H20.7C21.5 9.6 22.1 10.2 22.1 11V12.8C22.1 13.6 21.5 14.2 20.7 14.2H20.6C20.1 14.2 19.6 14.5 19.4 15Z" stroke="currentColor" stroke-width="1.8"/>
</svg>
