<svg width="24" height="24" viewBox="0 0 24 24" fill="none" xmlns="http://www.w3.org/2000/svg">
  <path d="M17.6 6.4C16.2 4.9 14.2 4 12 4C7.6 4 4 7.6 4 12C4 13.4 4.4 14.8 5 16L4 20L8.1 19C9.3 19.7 10.6 20 12 20C16.4 20 20 16.4 20 12C20 9.8 19.1 7.8 17.6 6.4Z" stroke="currentColor" stroke-width="1.8" stroke-linecap="round" stroke-linejoin="round"/>
  <path d="M9 9C9 9 9.5 8 10.5 8C11.5 8 12 8.5 12 9.5C12 10.5 11 11 11 12M11 14.5V15" stroke="currentColor" stroke-width="1.8" stroke-linecap="round"/>
</svg>
